<?xml version="1.0" encoding="UTF-8"?>
<svg width="94px" height="23px" viewBox="0 0 94 23" version="1.1" xmlns="http://www.w3.org/2000/svg" xmlns:xlink="http://www.w3.org/1999/xlink">
    <title>Logo</title>
    <g id="Databases" stroke="none" stroke-width="1" fill="none" fill-rule="evenodd">
        <g id="DB-V19-/-clusters--/-multi-dbs" transform="translate(-49.000000, -16.000000)">
            <g id="Group" transform="translate(49.000000, 16.000000)">
                <polygon id="Fill-1" fill="#FFFFFF" points="-1.08357767e-13 0.000337724551 -1.08357767e-13 21.972697 13.6474491 21.972697 13.6474491 18.5374754 3.99246707 18.5374754 3.99246707 12.6272958 11.3891976 12.6272958 11.3891976 9.19207425 3.99246707 9.19207425 3.99246707 3.43555928 13.1526826 3.43555928 13.1526826 0.000337724551"></polygon>
                <path d="M41.2429222,6.01194731 C43.1172934,6.01194731 45.4256407,6.78083353 46.4967904,8.5544503 L46.4967904,6.34629461 L49.909497,6.34629461 L49.909497,21.9728096 L46.4967904,21.9728096 L46.4967904,19.7303186 C45.4594132,21.4369533 43.1842754,22.3071569 41.2429222,22.3071569 C37.0264311,22.3071569 33.3125868,19.128606 33.3125868,14.142103 C33.3125868,9.15616287 37.0264311,6.01194731 41.2429222,6.01194731 Z M41.6448144,9.35823473 C39.0353293,9.35823473 36.8592575,11.2320431 36.8592575,14.1094563 C36.8592575,16.9874323 39.0353293,18.9608695 41.6448144,18.9608695 C44.1878802,18.9608695 46.463018,17.1878156 46.463018,14.1094563 C46.463018,11.0299713 43.987497,9.35823473 41.6448144,9.35823473 Z" id="Combined-Shape" fill="#FFFFFF"></path>
                <path d="M54.782412,17.2688132 C54.782412,17.2688132 56.5149389,19.001903 59.0844599,19.001903 C60.1978251,19.001903 61.1580886,18.5065737 61.1580886,17.578394 C61.1580886,15.2255796 53.4821725,15.5357234 53.4821725,10.4608491 C53.4821725,7.52039401 56.1130467,5.81826228 59.5173102,5.81826228 C63.0763641,5.81826228 64.808891,7.61326826 64.808891,7.61326826 L63.3549868,10.5227653 C63.3549868,10.5227653 61.9005198,9.16117246 59.4863521,9.16117246 C58.4647353,9.16117246 57.4740766,9.59345988 57.4740766,10.5846814 C57.4740766,12.8125377 65.1499928,12.533915 65.1499928,17.6093521 C65.1499928,20.2396635 62.8596575,22.3448132 59.1148551,22.3448132 C55.1848671,22.3448132 52.987406,20.0229569 52.987406,20.0229569 L54.782412,17.2688132 Z" id="Fill-4" fill="#FFFFFF"></path>
                <path d="M75.7956335,5.8181497 C80.623406,5.8181497 84.4920407,9.25337126 84.4920407,14.0811437 C84.4920407,18.9398743 80.623406,22.3441377 75.8265916,22.3441377 C70.999382,22.3441377 67.1301844,18.9398743 67.1301844,14.0811437 C67.1301844,9.25337126 70.999382,5.8181497 75.7956335,5.8181497 Z M75.8265916,9.16049701 C73.2576335,9.16049701 71.1220886,11.1716467 71.1220886,14.0811437 C71.1220886,17.0210359 73.2576335,19.0012275 75.8265916,19.0012275 C78.3645916,19.0012275 80.5001365,17.0210359 80.5001365,14.0811437 C80.5001365,11.1716467 78.3645916,9.16049701 75.8265916,9.16049701 Z" id="Combined-Shape" fill="#FFFFFF"></path>
                <path d="M87.4323832,5.15143483e-14 L91.331976,5.15143483e-14 L91.331976,16.463509 C91.331976,18.1965988 91.9196168,18.630012 92.9412335,18.630012 C93.2502515,18.630012 93.5294371,18.5990539 93.5294371,18.5990539 L93.5294371,22.0342754 C93.5294371,22.0342754 92.9412335,22.1277126 92.2911138,22.1277126 C90.1246108,22.1277126 87.4323832,21.5704671 87.4323832,17.0522754 L87.4323832,5.15143483e-14 Z" id="Fill-9" fill="#FFFFFF"></path>
                <polygon id="Fill-11" fill="#76BC1C" points="15.7524862 21.9724719 21.7667976 14.1327593 15.7806299 6.33019641 20.399576 6.33301078 26.3829293 14.1327593 20.3697437 21.9724719"></polygon>
                <polygon id="Fill-13" fill="#FFFFFF" points="24.894521 10.2436359 27.2028683 13.2527617 32.486006 6.32715689 27.8648084 6.31983952"></polygon>
                <polygon id="Fill-15" fill="#FFFFFF" points="24.894521 18.0488443 27.2028683 15.0391557 32.486006 21.9653234 27.8648084 21.9726407"></polygon>
            </g>
        </g>
    </g>
</svg>